PathFileType	4	(X/Y/Z)	66_2_22_p1_0-226.trc
DataRate	CameraRate	NumFrames	NumMarkers	Units	OrigDataRate	OrigDataStartFrame	OrigNumFrames
41.0	41.0	4	27	m	41.0	0	227
Frame#	Time	RHip			RKnee			RAnkle			RBigToe			RSmallToe			RHeel			LHip			LKnee			LAnkle			LBigToe			LSmallToe			LHeel			Neck			Head			Nose			RShoulder			RElbow			RWrist			RThumb			RIndex			RPinky			LShoulder			LElbow			LWrist			LThumb			LIndex			LPinky			
		X1	Y1	Z1	X2	Y2	Z2	X3	Y3	Z3	X4	Y4	Z4	X5	Y5	Z5	X6	Y6	Z6	X7	Y7	Z7	X8	Y8	Z8	X9	Y9	Z9	X10	Y10	Z10	X11	Y11	Z11	X12	Y12	Z12	X13	Y13	Z13	X14	Y14	Z14	X15	Y15	Z15	X16	Y16	Z16	X17	Y17	Z17	X18	Y18	Z18	X19	Y19	Z19	X20	Y20	Z20	X21	Y21	Z21	X22	Y22	Z22	X23	Y23	Z23	X24	Y24	Z24	X25	Y25	Z25	X26	Y26	Z26	X27	Y27	Z27	
0	0.0	0.5572370167718005	0.9046602097437642	0.7302618737334093	0.5545304727004661	1.0402674176117983	1.2056150545248254	0.5156811798516459	1.1793597715023607	1.6071711477581059	0.48574560675876144	0.9430717255787124	1.6641330874139746	0.5544082662758477	0.9860077352604986	1.6635233884296006	0.500044603093956	1.22558778400391	1.6556683996847772	0.3656067281934299	0.9270558648645116	0.746920608754987	0.33995609773528673	1.050066881802202	1.1912570872576007	0.32891378923509257	1.133947595132356	1.5770888220899102	0.3306752513126855	0.9165455210518942	1.6309302571770607	0.2770726075933955	1.0090410787397417	1.6422952474570345	0.3562815853876098	1.2309243415928577	1.6336113025932666	0.4583555744800201	0.7980135206375245	0.1783162187607436	0.4708790989780584	0.6730858223255567	-0.07038323597848418	0.44904000716496506	0.614815790466701	0.07146357958311209	0.5933203051896871	0.7692634215038606	0.2633596141804752	0.6258073979505742	0.8141979234482551	0.5331892938726456	0.49738375440662413	0.7517270423257332	0.7444787818452067	0.4155688781793054	0.7761113319226086	0.8437900756485478	0.4196316470636403	0.7969624347252253	0.873893611989066	0.46531108917187447	0.8441230531310786	0.8888456260066886	0.3168355202974599	0.838217703034292	0.2586056206946829	0.29023759757737544	0.8504292449789889	0.5204037442073853	0.38748786409225183	0.7922165081748244	0.7323483648564899	0.45861731084795143	0.7590789948242493	0.8153645380034209	0.4585476426226832	0.7579849176669976	0.8530855264391785	0.4132666017092274	0.7758856394782002	0.8617431105115567
1	0.024390243902439025	0.5570361422147533	0.9044541084110027	0.7340092376799995	0.5527955963185429	1.0384130252682675	1.205163971611822	0.520548734388371	1.1949717547852585	1.6129665122114347	0.49118054932957805	0.9576898404248536	1.665563624598559	0.5558629532724516	0.9851395250070342	1.6636214435582257	0.5057139533504355	1.2417121971873446	1.6620583538171854	0.3653102080342434	0.9257140017872367	0.750606747890459	0.3400151230291447	1.049892306495311	1.191132930797131	0.3335963373151176	1.1365493748296727	1.5781655611035998	0.33427273669096563	0.93148082823577	1.6363968220282636	0.27730182609060106	1.0098769826395197	1.6425276233795427	0.3578822007091951	1.2185976757478814	1.6294659263344653	0.45841398708804393	0.7973313255587582	0.17843794557092585	0.4709021853477007	0.6727091671312693	-0.07030288385381495	0.4489082251690088	0.6147519413596223	0.07143311174101712	0.5933389976688876	0.7693603106314936	0.26338819787716333	0.6256941457431731	0.8142832500929127	0.5330401238258082	0.49730035645904197	0.7520222802576414	0.7444535669394297	0.4160564507664782	0.7762399547322547	0.8477084736533698	0.4244903652639238	0.7980856779300776	0.8741812652755281	0.46961146371096085	0.8454703308252879	0.8890346588117456	0.31991079579056475	0.8511361933323196	0.25773546547434556	0.29023956035720766	0.8500854485673173	0.5246078657985921	0.38814860657508793	0.7646736802439851	0.7334949643996739	0.4584532892139977	0.7584377660923636	0.8151244675920511	0.4584034626741809	0.7577522818718478	0.8529600122156662	0.41301889969937006	0.7757232463396456	0.8615550065448448
2	0.04878048780487805	0.5572699088626352	0.9034462419330833	0.733837149302852	0.5525197654456586	1.0388699434425692	1.205219883627673	0.5197814354074874	1.1596197419614005	1.5961875595447783	0.4852980644405827	0.9459654106783061	1.6605853906524661	0.5577830140119064	0.9734480619547765	1.6534472318514548	0.5082923436927544	1.2478874920706688	1.663835694707783	0.3653822047042849	0.924602057622974	0.7508878244946315	0.3452633741555373	1.0499537226002196	1.1829530601813945	0.3289867868791348	1.1531573032892395	1.5833936200899927	0.33139349803624774	0.917529803834715	1.6226576594043363	0.27811773631809705	1.0100905535662357	1.634272752543338	0.357187885763636	1.2226489209385638	1.6313127693783953	0.45842135951505686	0.797071665603333	0.1784716002363102	0.4708560853169502	0.6726725550609962	-0.07028901779661306	0.44896005539342076	0.615838190915879	0.07434681264120581	0.5933636977173654	0.7696279667249367	0.2633335586963972	0.6249096323131947	0.8123445600943169	0.5258322032208165	0.4972628238303404	0.7518231035866592	0.7443840965878608	0.4198540169984903	0.7777195915110182	0.8513298838047088	0.4239915668447919	0.7996661624441038	0.8778237124850226	0.4695639295695672	0.8453793333704258	0.8890742282645667	0.32015732318525075	0.8531357865172617	0.2613434543977197	0.29035934619657416	0.8499954841759119	0.5246666646253324	0.3918122099717412	0.7773745131307168	0.7348221910376692	0.45922234222800273	0.758253366822246	0.8156666347117224	0.46221809005119197	0.7687735302708137	0.8544685166871325	0.4127207921702009	0.776823789865822	0.857874776318118
3	0.07317073170731707	0.5571907643960694	0.9036959253701534	0.7339145233223181	0.5525966686048744	1.038562099288992	1.2051945042572534	0.5159543975252027	1.1793137674921745	1.602879788431903	0.4816090198223784	0.9319862399906903	1.655306896546052	0.5549512145058049	0.9908245161955849	1.6603169487459726	0.5050643560733254	1.2441819923617428	1.6575295790139102	0.36523930208098593	0.9254783699484941	0.7508884081322164	0.3454301914647975	1.0491952408493574	1.1868148553449738	0.32922442926874756	1.153218011187169	1.5833378329487715	0.3313519852567375	0.917548389175462	1.622665052589649	0.27796898593465874	1.0111810874435776	1.6348166816464398	0.3578780313766174	1.22359668062946	1.631290623920676	0.4584179790823397	0.7973674545918045	0.17841901839711669	0.47084970029628265	0.6727002419057687	-0.07032387732233737	0.4487664429665854	0.6143692104156503	0.07137431656700843	0.593364469979892	0.7697438379269668	0.263308580179807	0.624912204330548	0.8122327660693055	0.5257922992752558	0.4967247722756602	0.7493539172641841	0.7401877165319478	0.4202093561317413	0.7773484683196035	0.8475532128907288	0.4244574772204409	0.7987225877646229	0.8741854876295001	0.46947352993750735	0.8454020231364673	0.8891049958009669	0.31676701130184565	0.8384108554099976	0.258399080733945	0.2907219704221129	0.8495506665745872	0.5213114589065356	0.3877765329842702	0.7918946298402424	0.7323669230473455	0.46351353541520346	0.7610424493008188	0.8163034630496442	0.45924669619542396	0.7572629191490976	0.8529393387159199	0.41308048283234733	0.7759199422207644	0.8615242918224695
